<?xml version="1.0" encoding="UTF-8"?>
<svg width="169px" height="145px" viewBox="0 0 169 145" version="1.1" xmlns="http://www.w3.org/2000/svg" xmlns:xlink="http://www.w3.org/1999/xlink">
    <!-- Generator: Sketch 3.8.3 (29802) - http://www.bohemiancoding.com/sketch -->
    <title>Group 11</title>
    <desc>Created with Sketch.</desc>
    <defs></defs>
    <g id="Page-1" stroke="none" stroke-width="1" fill="none" fill-rule="evenodd">
        <g id="Group-11" fill="#FFFFFF">
            <path d="M76.0614596,69.2023134 L103.121977,30.5558899 C105.02062,27.8443466 108.754975,27.1833031 111.477738,29.0898023 L115.210973,31.703841 C117.927089,33.6056865 118.588625,37.3472301 116.69114,40.0571203 L86.5453785,83.1097293 C86.4449381,83.2900403 86.3342649,83.4669912 86.2132259,83.6398529 L83.5991871,87.3730871 C81.6973417,90.0892039 77.9613097,90.7545991 75.2365144,88.8466769 L54.5635889,74.3713386 C51.8468577,72.469063 51.1816086,68.7317624 53.0881078,66.0089994 L55.7021466,62.2757651 C57.603992,59.5596484 61.340024,58.8942532 64.0648193,60.8021754 L76.0614596,69.2023134 Z" id="Combined-Shape"></path>
            <path d="M89.57,136.045 L89.57,118.3 L81.12,118.3 L81.12,136.045 L47.3142786,136.045 C44.9783779,136.045 43.095,137.936597 43.095,140.27 C43.095,142.598655 44.9840354,144.495 47.3142786,144.495 L123.375721,144.495 C125.711622,144.495 127.595,142.603403 127.595,140.27 C127.595,137.941345 125.705965,136.045 123.375721,136.045 L89.57,136.045 Z M0,7.99190412 C0,3.57809735 3.58836913,0 8.00921595,0 L160.990784,0 C165.414152,0 169,3.57271395 169,7.99190412 L169,110.308096 C169,114.721903 165.411631,118.3 160.990784,118.3 L8.00921595,118.3 C3.58584812,118.3 0,114.727286 0,110.308096 L0,7.99190412 Z M8,9.00359142 C8,8.44932318 8.44991399,8 8.99128787,8 L159.108712,8 C159.656185,8 160.1,8.45208454 160.1,9.00359142 L160.1,108.396409 C160.1,108.950677 159.650086,109.4 159.108712,109.4 L8.99128787,109.4 C8.4438147,109.4 8,108.947915 8,108.396409 L8,9.00359142 Z" id="Combined-Shape"></path>
        </g>
    </g>
</svg>